<svg width="64" height="64" viewBox="0 0 64 64" fill="none" xmlns="http://www.w3.org/2000/svg">
<path d="M34.6667 30.6667C34.0941 29.9012 33.3635 29.2678 32.5246 28.8094C31.6857 28.3511 30.758 28.0785 29.8045 28.0102C28.851 27.9419 27.8939 28.0795 26.9982 28.4136C26.1026 28.7478 25.2892 29.2706 24.6134 29.9467L20.6134 33.9467C19.399 35.204 18.727 36.888 18.7422 38.636C18.7574 40.384 19.4585 42.0561 20.6946 43.2921C21.9306 44.5282 23.6027 45.2293 25.3507 45.2445C27.0987 45.2597 28.7827 44.5877 30.04 43.3733L32.32 41.0933M29.3333 33.3333C29.9059 34.0988 30.6365 34.7322 31.4754 35.1906C32.3143 35.6489 33.242 35.9215 34.1955 35.9898C35.1491 36.0581 36.1061 35.9205 37.0018 35.5864C37.8975 35.2523 38.7108 34.7294 39.3867 34.0533L43.3867 30.0533C44.6011 28.796 45.273 27.112 45.2578 25.364C45.2426 23.616 44.5415 21.9439 43.3055 20.7079C42.0694 19.4718 40.3973 18.7707 38.6493 18.7555C36.9014 18.7403 35.2173 19.4123 33.96 20.6267L31.6667 22.9067" stroke="#FE9FB2" stroke-width="2" stroke-linecap="round" stroke-linejoin="round"/>
<path d="M21.3333 8H13.3333C11.9188 8 10.5623 8.5619 9.5621 9.5621C8.5619 10.5623 8 11.9188 8 13.3333V21.3333M56 21.3333V13.3333C56 11.9188 55.4381 10.5623 54.4379 9.5621C53.4377 8.5619 52.0812 8 50.6667 8H42.6667M42.6667 56H50.6667C52.0812 56 53.4377 55.4381 54.4379 54.4379C55.4381 53.4377 56 52.0812 56 50.6667V42.6667M8 42.6667V50.6667C8 52.0812 8.5619 53.4377 9.5621 54.4379C10.5623 55.4381 11.9188 56 13.3333 56H21.3333" stroke="#1A1C23" stroke-width="2" stroke-linecap="round" stroke-linejoin="round"/>
</svg>
